<?xml version="1.0" encoding="us-ascii" standalone="no"?><svg xmlns="http://www.w3.org/2000/svg" xmlns:xlink="http://www.w3.org/1999/xlink" contentStyleType="text/css" height="381px" preserveAspectRatio="none" style="width:1355px;height:381px;background:#FFFFFF;" version="1.1" viewBox="0 0 1355 381" width="1355px" zoomAndPan="magnify"><defs/><g><!--cluster 6ebb7423072c5943f52c11274fd71b0b--><g id="cluster_6ebb7423072c5943f52c11274fd71b0b"><polygon fill="none" points="16,16,26,6,342,6,342,163.49,332,173.49,16,173.49,16,16" style="stroke:#181818;stroke-width:1.0;"/><line style="stroke:#181818;stroke-width:1.0;" x1="332" x2="342" y1="16" y2="6"/><line style="stroke:#181818;stroke-width:1.0;" x1="16" x2="332" y1="16" y2="16"/><line style="stroke:#181818;stroke-width:1.0;" x1="332" x2="332" y1="16" y2="173.49"/><text fill="#000000" font-family="sans-serif" font-size="14" font-weight="bold" lengthAdjust="spacing" textLength="83" x="133.5" y="31.9951">Dynamodb</text></g><!--cluster 54afc4697cf03d8e3ec9a05b16380622--><g id="cluster_54afc4697cf03d8e3ec9a05b16380622"><polygon fill="none" points="366,16,376,6,644,6,644,163.49,634,173.49,366,173.49,366,16" style="stroke:#181818;stroke-width:1.0;"/><line style="stroke:#181818;stroke-width:1.0;" x1="634" x2="644" y1="16" y2="6"/><line style="stroke:#181818;stroke-width:1.0;" x1="366" x2="634" y1="16" y2="16"/><line style="stroke:#181818;stroke-width:1.0;" x1="634" x2="634" y1="16" y2="173.49"/><text fill="#000000" font-family="sans-serif" font-size="14" font-weight="bold" lengthAdjust="spacing" textLength="29" x="486.5" y="31.9951">Sns</text></g><!--cluster ba39a5f0aa547715c4df694144393752--><g id="cluster_ba39a5f0aa547715c4df694144393752"><polygon fill="none" points="668,16,678,6,1026,6,1026,163.49,1016,173.49,668,173.49,668,16" style="stroke:#181818;stroke-width:1.0;"/><line style="stroke:#181818;stroke-width:1.0;" x1="1016" x2="1026" y1="16" y2="6"/><line style="stroke:#181818;stroke-width:1.0;" x1="668" x2="1016" y1="16" y2="16"/><line style="stroke:#181818;stroke-width:1.0;" x1="1016" x2="1016" y1="16" y2="173.49"/><text fill="#000000" font-family="sans-serif" font-size="14" font-weight="bold" lengthAdjust="spacing" textLength="92" x="797" y="31.9951">Apigateway</text></g><!--cluster ef4ba2f338cdf4b615ed280ff0b2777d--><g id="cluster_ef4ba2f338cdf4b615ed280ff0b2777d"><polygon fill="none" points="1050,16,1060,6,1338,6,1338,163.49,1328,173.49,1050,173.49,1050,16" style="stroke:#181818;stroke-width:1.0;"/><line style="stroke:#181818;stroke-width:1.0;" x1="1328" x2="1338" y1="16" y2="6"/><line style="stroke:#181818;stroke-width:1.0;" x1="1050" x2="1328" y1="16" y2="16"/><line style="stroke:#181818;stroke-width:1.0;" x1="1328" x2="1328" y1="16" y2="173.49"/><text fill="#000000" font-family="sans-serif" font-size="14" font-weight="bold" lengthAdjust="spacing" textLength="29" x="1175.5" y="31.9951">Sqs</text></g><!--cluster 04a7da3c5b04cad85da1eebb92315b8b--><g id="cluster_04a7da3c5b04cad85da1eebb92315b8b"><polygon fill="none" points="514,207.49,524,197.49,838,197.49,838,354.97,828,364.97,514,364.97,514,207.49" style="stroke:#181818;stroke-width:1.0;"/><line style="stroke:#181818;stroke-width:1.0;" x1="828" x2="838" y1="207.49" y2="197.49"/><line style="stroke:#181818;stroke-width:1.0;" x1="514" x2="828" y1="207.49" y2="207.49"/><line style="stroke:#181818;stroke-width:1.0;" x1="828" x2="828" y1="207.49" y2="364.97"/><text fill="#000000" font-family="sans-serif" font-size="14" font-weight="bold" lengthAdjust="spacing" textLength="61" x="641.5" y="223.4851">Lambda</text></g><!--entity dd8ab79084877ff05fc1ac549a9f4375--><g id="elem_dd8ab79084877ff05fc1ac549a9f4375"><rect fill="#F1F1F1" height="111.4844" rx="2.5" ry="2.5" style="stroke:#181818;stroke-width:0.5;" width="294" x="32" y="46"/><rect fill="#F1F1F1" height="10" style="stroke:#181818;stroke-width:0.5;" width="15" x="306" y="51"/><rect fill="#F1F1F1" height="2" style="stroke:#181818;stroke-width:0.5;" width="4" x="304" y="53"/><rect fill="#F1F1F1" height="2" style="stroke:#181818;stroke-width:0.5;" width="4" x="304" y="57"/><text fill="#000000" font-family="sans-serif" font-size="14" font-weight="bold" lengthAdjust="spacing" textLength="146" x="47" y="78.9951">dynamodb_myBlog</text><text fill="#000000" font-family="sans-serif" font-size="14" lengthAdjust="spacing" textLength="4" x="47" y="95.292">&#160;</text><text fill="#000000" font-family="sans-serif" font-size="14" lengthAdjust="spacing" textLength="145" x="47" y="111.5889">terraform name: blog</text><text fill="#000000" font-family="sans-serif" font-size="14" lengthAdjust="spacing" textLength="254" x="47" y="127.8857">terraform type: aws_dynamodb_table</text><text fill="#000000" font-family="sans-serif" font-size="14" lengthAdjust="spacing" textLength="4" x="47" y="144.1826">&#160;</text></g><!--entity 03a09d30904930a9cee54bdcfc6cd1bf--><g id="elem_03a09d30904930a9cee54bdcfc6cd1bf"><rect fill="#F1F1F1" height="111.4844" rx="2.5" ry="2.5" style="stroke:#181818;stroke-width:0.5;" width="246" x="382" y="46"/><rect fill="#F1F1F1" height="10" style="stroke:#181818;stroke-width:0.5;" width="15" x="608" y="51"/><rect fill="#F1F1F1" height="2" style="stroke:#181818;stroke-width:0.5;" width="4" x="606" y="53"/><rect fill="#F1F1F1" height="2" style="stroke:#181818;stroke-width:0.5;" width="4" x="606" y="57"/><text fill="#000000" font-family="sans-serif" font-size="14" font-weight="bold" lengthAdjust="spacing" textLength="201" x="397" y="78.9951">sns_sns-sqs-upload-topic</text><text fill="#000000" font-family="sans-serif" font-size="14" lengthAdjust="spacing" textLength="4" x="397" y="95.292">&#160;</text><text fill="#000000" font-family="sans-serif" font-size="14" lengthAdjust="spacing" textLength="162" x="397" y="111.5889">terraform name: upload</text><text fill="#000000" font-family="sans-serif" font-size="14" lengthAdjust="spacing" textLength="206" x="397" y="127.8857">terraform type: aws_sns_topic</text><text fill="#000000" font-family="sans-serif" font-size="14" lengthAdjust="spacing" textLength="4" x="397" y="144.1826">&#160;</text></g><!--entity 0e912737cfc3445c553c2d432e55981d--><g id="elem_0e912737cfc3445c553c2d432e55981d"><rect fill="#F1F1F1" height="111.4844" rx="2.5" ry="2.5" style="stroke:#181818;stroke-width:0.5;" width="325" x="684.5" y="46"/><rect fill="#F1F1F1" height="10" style="stroke:#181818;stroke-width:0.5;" width="15" x="989.5" y="51"/><rect fill="#F1F1F1" height="2" style="stroke:#181818;stroke-width:0.5;" width="4" x="987.5" y="53"/><rect fill="#F1F1F1" height="2" style="stroke:#181818;stroke-width:0.5;" width="4" x="987.5" y="57"/><text fill="#000000" font-family="sans-serif" font-size="14" font-weight="bold" lengthAdjust="spacing" textLength="255" x="699.5" y="78.9951">apigateway_lambda-api-gateway</text><text fill="#000000" font-family="sans-serif" font-size="14" lengthAdjust="spacing" textLength="4" x="699.5" y="95.292">&#160;</text><text fill="#000000" font-family="sans-serif" font-size="14" lengthAdjust="spacing" textLength="135" x="699.5" y="111.5889">terraform name: api</text><text fill="#000000" font-family="sans-serif" font-size="14" lengthAdjust="spacing" textLength="285" x="699.5" y="127.8857">terraform type: aws_api_gateway_rest_api</text><text fill="#000000" font-family="sans-serif" font-size="14" lengthAdjust="spacing" textLength="4" x="699.5" y="144.1826">&#160;</text></g><!--entity 13610d55e163346d1596f31d1b540caf--><g id="elem_13610d55e163346d1596f31d1b540caf"><rect fill="#F1F1F1" height="111.4844" rx="2.5" ry="2.5" style="stroke:#181818;stroke-width:0.5;" width="257" x="1065.5" y="46"/><rect fill="#F1F1F1" height="10" style="stroke:#181818;stroke-width:0.5;" width="15" x="1302.5" y="51"/><rect fill="#F1F1F1" height="2" style="stroke:#181818;stroke-width:0.5;" width="4" x="1300.5" y="53"/><rect fill="#F1F1F1" height="2" style="stroke:#181818;stroke-width:0.5;" width="4" x="1300.5" y="57"/><text fill="#000000" font-family="sans-serif" font-size="14" font-weight="bold" lengthAdjust="spacing" textLength="156" x="1080.5" y="78.9951">sqs_sns-sqs-upload</text><text fill="#000000" font-family="sans-serif" font-size="14" lengthAdjust="spacing" textLength="4" x="1080.5" y="95.292">&#160;</text><text fill="#000000" font-family="sans-serif" font-size="14" lengthAdjust="spacing" textLength="162" x="1080.5" y="111.5889">terraform name: upload</text><text fill="#000000" font-family="sans-serif" font-size="14" lengthAdjust="spacing" textLength="217" x="1080.5" y="127.8857">terraform type: aws_sqs_queue</text><text fill="#000000" font-family="sans-serif" font-size="14" lengthAdjust="spacing" textLength="4" x="1080.5" y="144.1826">&#160;</text></g><!--entity b3a498f0ab18f03c29a8bc29f1a2c041--><g id="elem_b3a498f0ab18f03c29a8bc29f1a2c041"><rect fill="#F1F1F1" height="111.4844" rx="2.5" ry="2.5" style="stroke:#181818;stroke-width:0.5;" width="293" x="529.5" y="237.49"/><rect fill="#F1F1F1" height="10" style="stroke:#181818;stroke-width:0.5;" width="15" x="802.5" y="242.49"/><rect fill="#F1F1F1" height="2" style="stroke:#181818;stroke-width:0.5;" width="4" x="800.5" y="244.49"/><rect fill="#F1F1F1" height="2" style="stroke:#181818;stroke-width:0.5;" width="4" x="800.5" y="248.49"/><text fill="#000000" font-family="sans-serif" font-size="14" font-weight="bold" lengthAdjust="spacing" textLength="216" x="544.5" y="270.4851">lambda_sns-sqs-upload-cbr</text><text fill="#000000" font-family="sans-serif" font-size="14" lengthAdjust="spacing" textLength="4" x="544.5" y="286.782">&#160;</text><text fill="#000000" font-family="sans-serif" font-size="14" lengthAdjust="spacing" textLength="137" x="544.5" y="303.0789">terraform name: cbr</text><text fill="#000000" font-family="sans-serif" font-size="14" lengthAdjust="spacing" textLength="253" x="544.5" y="319.3757">terraform type: aws_lambda_function</text><text fill="#000000" font-family="sans-serif" font-size="14" lengthAdjust="spacing" textLength="4" x="544.5" y="335.6726">&#160;</text></g><!--link 03a09d30904930a9cee54bdcfc6cd1bf to b3a498f0ab18f03c29a8bc29f1a2c041--><g id="link_03a09d30904930a9cee54bdcfc6cd1bf_b3a498f0ab18f03c29a8bc29f1a2c041"><path codeLine="47" d="M554.69,157.8 C577.17,182.72 603.69,212.1 626.19,237.03 " fill="none" id="03a09d30904930a9cee54bdcfc6cd1bf-b3a498f0ab18f03c29a8bc29f1a2c041" style="stroke:#181818;stroke-width:1.0;"/></g><!--link 0e912737cfc3445c553c2d432e55981d to b3a498f0ab18f03c29a8bc29f1a2c041--><g id="link_0e912737cfc3445c553c2d432e55981d_b3a498f0ab18f03c29a8bc29f1a2c041"><path codeLine="48" d="M797.31,157.8 C774.83,182.72 748.31,212.1 725.81,237.03 " fill="none" id="0e912737cfc3445c553c2d432e55981d-b3a498f0ab18f03c29a8bc29f1a2c041" style="stroke:#181818;stroke-width:1.0;"/></g><!--SRC=[bP9Bgzim48Nt_XNcBWC6FMOiwUvQkkokorB2Q4OA0J-Is24DfV-zkavwkGc1j0iBSmQDlfbpgEl6Kx_zkHqsrJ1Agb- -d0VgHualDKrrcs9qOAnoXZ60pMXOQ-CWYzDHnVfNLVFOxyOX3NCjuYcwe3nuvt9Mc5aJ8mGA6Qp3-dkrMicr_xe_V-x6pMfLLNCw72YFXxukfVHQnw9_4EVpheXqcjRlTsUANQgg7zNlA_MtOLg04IWpjC5nLbPyiea3AOowjLwrnjm2AqigY5L1GR2A0gU448KpjomwvWLu6gPr-PffFpN7NJUIDFEus_8Zyalz8VjRc-NUH-nFk-s6vdIYyq8VoGR2h8WGdDF88BaDe05iAFkxfq-XM67Bg6m1a14j6m5h4cBmMXPwUdzXtL4VXPgYD5VfqGYb_92_wEk_dGvfcj-46mVs5mTIXaWcM-jPoc-hCOdngiGX6kUStCwWRQkL8APYa8LMD8OsMrsMZw2OhWxixntutzsN1ljZEjv4vkkoZeLP0JaXonWLC8b78PrAz8En6gE_Ytcq1C4Nbw8kPzbv81_BcJKPLg0NvikoxuF3yV08lSWFkQzDyd7WUJiE5_gdeMsaUSfOFGtFltJv0m00]--></g></svg>